<?xml version="1.0" encoding="utf-8"?>
<!-- Generator: Adobe Illustrator 15.0.0, SVG Export Plug-In . SVG Version: 6.00 Build 0)  -->
<!DOCTYPE svg PUBLIC "-//W3C//DTD SVG 1.1//EN" "http://www.w3.org/Graphics/SVG/1.1/DTD/svg11.dtd">
<svg version="1.1" id="Layer_1" xmlns="http://www.w3.org/2000/svg" xmlns:xlink="http://www.w3.org/1999/xlink" x="0px" y="0px"
	 width="564.094px" height="119px" viewBox="0 0 564.094 119" enable-background="new 0 0 564.094 119" xml:space="preserve">
<g>
	<path fill="#4B4A4B" d="M142.07,32.89h8.313h1.343h1.37v1.277v1.596v12.208v1.596v1.277h-1.37h-1.343h-8.313h-1.343h-1.37v-1.277
		v-1.596V35.763v-1.596V32.89h1.37H142.07L142.07,32.89z M150.356,35.444h-8.259v0.319v12.208v0.319h8.259v-0.319V35.763V35.444
		L150.356,35.444z"/>
	<path fill="#4B4A4B" d="M142.07,57.305h8.313h1.343h1.37v1.277v1.596v12.207v1.598v1.275h-1.37h-1.343h-8.313h-1.343h-1.37v-1.275
		v-1.598V60.178v-1.596v-1.277h1.37H142.07L142.07,57.305z M150.356,59.859h-8.259v0.318v12.207v0.32h8.259v-0.32V60.178V59.859
		L150.356,59.859z"/>
	<path fill="#4B4A4B" d="M167.409,32.89h-8.313h-1.343h-1.37v1.277v1.596v12.208v1.596v1.277h1.37h1.343h8.313h1.343h1.37v-1.277
		v-1.596V35.763v-1.596V32.89h-1.37H167.409L167.409,32.89z M159.124,35.444h8.258v0.319v12.208v0.319h-8.258v-0.319V35.763V35.444
		L159.124,35.444z"/>
	<path fill="#4B4A4B" d="M167.409,57.305h-8.313h-1.343h-1.37v1.277v1.596v12.207v1.598v1.275h1.37h1.343h8.313h1.343h1.37v-1.275
		v-1.598V60.178v-1.596v-1.277h-1.37H167.409L167.409,57.305z M159.124,59.859h8.258v0.318v12.207v0.32h-8.258v-0.32V60.178V59.859
		L159.124,59.859z"/>
	<path fill="#4B4A4B" d="M285.436,75.178h16.844h1.369v1.369v16.844v1.371h-1.369h-16.844h-1.371v-1.371V76.547v-1.369H285.436
		L285.436,75.178z M300.908,77.916h-14.104v14.105h14.104V77.916L300.908,77.916z"/>
	<path fill="#4B4A4B" d="M495.352,54.181h-8.313h-1.342h-1.371v1.277v1.596v12.208v1.596v1.277h1.371h1.342h8.313h1.344h1.369
		v-1.277v-1.596V57.054v-1.596v-1.277h-1.369H495.352L495.352,54.181z M487.066,56.735h8.26v0.319v12.208v0.318h-8.26v-0.318V57.054
		V56.735L487.066,56.735z"/>
	<path fill="#4B4A4B" d="M495.352,78.596h-8.313h-1.342h-1.371v1.277v1.596v12.207v1.598v1.275h1.371h1.342h8.313h1.344h1.369
		v-1.275v-1.598V81.469v-1.596v-1.277h-1.369H495.352L495.352,78.596z M487.066,81.15h8.26v0.318v12.207v0.32h-8.26v-0.32V81.469
		V81.15L487.066,81.15z"/>
	<polygon fill="#4B4A4B" points="425.459,83.895 432.945,83.895 434.316,83.895 434.316,85.266 434.316,103.574 434.316,104.945 
		432.945,104.945 431.576,104.945 431.576,102.205 431.576,86.635 426.83,86.635 426.83,102.205 426.83,104.945 425.459,104.945 
		424.09,104.945 424.09,103.574 424.09,85.266 424.09,83.895 425.459,83.895 	"/>
	<path fill="#4B4A4B" d="M385.793,45.896c-0.242,0.025-0.492,0.066-0.748,0.121l-2.098,0.446l0.037-2.146v-0.032
		c0.004-0.169-0.006,0.34-0.006-0.104c0-2.365-0.885-4.495-2.318-6.025c-1.404-1.501-3.344-2.43-5.482-2.43s-4.078,0.929-5.482,2.43
		c-1.434,1.531-2.318,3.661-2.318,6.025c0,0.447,0.027,0.868,0.082,1.26c0.057,0.417,0.145,0.827,0.258,1.229l0.502,1.767
		l-1.813,0.367c-1.807,0.365-3.398,1.412-4.537,2.884c-1.137,1.467-1.82,3.36-1.82,5.433c0,1.469,0.342,2.845,0.943,4.039
		c0.621,1.234,1.518,2.283,2.598,3.047l2.5,1.768l-2.814,1.203c-1.455,0.621-2.699,1.709-3.578,3.096
		c-0.859,1.357-1.363,3.002-1.363,4.775c0,2.365,0.887,4.494,2.318,6.025c1.406,1.502,3.344,2.43,5.484,2.43
		c0.684,0,1.336-0.09,1.945-0.26c0.643-0.178,1.254-0.443,1.82-0.785l1.549-0.926l0.84,1.596c0.688,1.307,1.689,2.396,2.891,3.148
		c0.578,0.361,1.205,0.645,1.867,0.838l0,0l-0.809,16.264l-0.139,1.566h-1.568h-23.172c-0.34,0.537-0.752,1.031-1.221,1.471
		c-1.41,1.318-3.342,2.135-5.463,2.135c-1.014,0-1.986-0.188-2.885-0.527c-0.311-0.119-0.611-0.254-0.9-0.408
		c-0.518,0.59-1.131,1.102-1.816,1.514c-1.207,0.729-2.639,1.15-4.168,1.15c-2.121,0-4.053-0.816-5.463-2.137
		c-0.938-0.877-1.641-1.973-2.02-3.197h-10.67h-1.707v-1.713l0.002-33.373v-1.707h1.705h5.115l-39.254-36.182l-38.985,36.176h5.228
		h1.678l0.027,1.686l0.548,33.373l0.029,1.74h-1.735h-16.369h-1.698l-0.007-1.707l-0.115-26.516h-31.855l0,26.51v1.705h-1.706
		h-10.917h-1.676l-0.03-1.68c-0.208-11.602-0.104-27.014,0-42.424c0.099-14.652,0.198-29.304,0.028-40.672h-14.132v-3.483h0.043
		V8.61h-32.432v6.684v1.384v3.483h-14.146v49.698v1.705h-1.712H97.883h-0.775l-0.509-0.582L75.609,47.008l-29.19,13.84l-2.286,1.084
		l-0.149-2.535l-0.582-9.927h-3.659l-0.823,13.999l-0.058,0.988l-0.892,0.441l-6.553,3.248h0.806h1.712v1.713v33.373v1.713h-1.712
		H15.827v-3.426h14.685V71.57h-6.398h-7.303l6.548-3.244l12.209-6.049l0.86-14.621l0.095-1.612h1.611h6.88h1.61l0.095,1.619
		l0.528,9.01l28.065-13.307l1.162-0.551l0.852,0.972l21.331,24.364h22.314V18.449v-1.712h1.712h12.434V6.898V5.186h1.712h35.856
		h1.712v1.712v9.839h12.342h1.675l0.03,1.686c0.208,11.603,0.104,27.014,0,42.425c-0.099,14.654-0.198,29.309-0.028,40.678h7.534
		V75.01v-1.713h1.706h35.259h1.698l0.007,1.705l0.115,26.518h12.937l-0.492-29.949h-7.907h-4.357l3.193-2.963l43.339-40.215
		l1.161-1.077l1.16,1.07L327.4,68.602l3.217,2.963h-4.373h-7.783v29.955h8.789c0.049-0.248,0.111-0.494,0.188-0.736
		c0.047-0.152,0.1-0.305,0.156-0.453c-0.549-0.5-1.021-1.076-1.398-1.709c-0.639-1.076-1.002-2.314-1.002-3.631
		c0-2.059,0.891-3.92,2.328-5.268c1.41-1.318,3.344-2.135,5.463-2.135c0.213,0,0.428,0.01,0.646,0.027
		c0.596-0.803,1.354-1.486,2.229-2.008c1.205-0.721,2.627-1.137,4.141-1.137c2.121,0,4.055,0.816,5.463,2.135
		c1.439,1.348,2.33,3.209,2.33,5.268c0,0.813-0.143,1.6-0.402,2.342c1.051,0.369,1.994,0.947,2.771,1.682
		c1.426,1.344,2.307,3.199,2.307,5.252c0,0.125-0.002,0.248-0.008,0.371h20.506l1.059-11.963c-0.221-0.119-0.438-0.244-0.65-0.377
		c-1.254-0.783-2.35-1.818-3.229-3.037c-0.375,0.152-0.76,0.283-1.154,0.393c-0.924,0.258-1.881,0.395-2.855,0.395
		c-3.115,0-5.934-1.348-7.973-3.527c-2.01-2.148-3.254-5.104-3.254-8.354c0-2.443,0.699-4.719,1.898-6.609
		c0.775-1.225,1.764-2.289,2.91-3.135c-0.697-0.775-1.297-1.652-1.777-2.605c-0.84-1.67-1.316-3.569-1.316-5.578
		c0-2.849,0.953-5.47,2.541-7.52c1.279-1.651,2.971-2.931,4.912-3.664l-0.004-0.028c-0.08-0.582-0.123-1.16-0.123-1.728
		c0-3.249,1.244-6.204,3.256-8.353c2.039-2.179,4.857-3.527,7.971-3.527s5.934,1.348,7.971,3.527
		c1.645,1.758,2.777,4.055,3.135,6.611c0.094-0.003,0.186-0.004,0.275-0.004c3.113,0,5.932,1.348,7.971,3.527
		c2.012,2.149,3.256,5.104,3.256,8.353c0,1.302-0.201,2.562-0.572,3.743c-0.195,0.618-0.438,1.215-0.721,1.785
		c1.295,0.91,2.402,2.096,3.244,3.477c1.133,1.857,1.789,4.066,1.789,6.43c0,3.248-1.244,6.203-3.254,8.352
		c-2.039,2.18-4.857,3.527-7.973,3.527c-0.092,0-0.188-0.002-0.287-0.006c-0.512,2.344-1.678,4.424-3.283,6.01
		c-0.771,0.76-1.641,1.408-2.588,1.916l1.523,11.977h19.232l-0.293-26.502l-0.016-1.408l1.387-0.277l43.91-8.816l40.238-32.495
		l1.068-0.863l1.072,0.863l40.705,32.752l3.783,3.043h-4.854h-6.861v33.697h23.23v3.426h-24.943h-1.711v-1.713V66.111v-1.713h1.711
		h3.723l-35.852-28.847l-39.488,31.89l-0.318,0.258l-0.418,0.084l-42.941,8.621l0.297,26.814l0.02,1.719h-1.725h-22.459h-1.504
		l-0.189-1.492l-1.541-16.283c1.291-0.34,2.457-1.027,3.406-1.965c1.42-1.402,2.359-3.367,2.52-5.572l0.141-1.932l1.895,0.373
		c0.26,0.053,0.494,0.088,0.697,0.109c0.197,0.018,0.436,0.029,0.713,0.029c2.141,0,4.08-0.93,5.484-2.432
		c1.432-1.529,2.318-3.66,2.318-6.023c0-1.725-0.471-3.32-1.281-4.65c-0.83-1.361-2.012-2.449-3.402-3.107l-1.842-0.871l1.18-1.663
		c0.51-0.72,0.916-1.534,1.191-2.416c0.268-0.851,0.412-1.767,0.412-2.727c0-2.365-0.885-4.495-2.318-6.025
		c-1.404-1.501-3.344-2.43-5.482-2.43C386.273,45.86,386.018,45.873,385.793,45.896L385.793,45.896z M347.82,98.385
		c-0.791-0.746-1.891-1.213-3.107-1.221l-3.715-0.023l2.432-2.799c0.303-0.348,0.543-0.742,0.703-1.168
		c0.152-0.4,0.234-0.838,0.234-1.301c0-1.084-0.471-2.066-1.232-2.779c-0.791-0.74-1.898-1.199-3.135-1.199
		c-0.889,0-1.707,0.236-2.387,0.643c-0.695,0.414-1.252,1.002-1.596,1.695l-0.607,1.223l-1.318-0.314
		c-0.188-0.045-0.369-0.076-0.543-0.098c-0.172-0.02-0.361-0.029-0.564-0.029c-1.236,0-2.344,0.457-3.135,1.197
		c-0.762,0.713-1.232,1.697-1.232,2.779c0,0.688,0.189,1.332,0.521,1.891c0.355,0.596,0.871,1.102,1.494,1.465l1.586,0.926
		l-1.031,1.516c-0.211,0.311-0.377,0.648-0.486,1c-0.104,0.336-0.16,0.701-0.16,1.088c0,1.084,0.471,2.068,1.232,2.779
		c0.791,0.74,1.898,1.199,3.135,1.199c0.891,0,1.715-0.24,2.402-0.654c0.695-0.42,1.254-1.016,1.596-1.717l0.998-2.051l1.689,1.535
		c0.402,0.365,0.879,0.658,1.404,0.859c0.51,0.193,1.078,0.301,1.68,0.301c1.236,0,2.344-0.459,3.135-1.199
		c0.762-0.713,1.232-1.695,1.232-2.779C349.045,100.074,348.578,99.098,347.82,98.385L347.82,98.385z"/>
	<polygon fill="#4B4A4B" points="165.552,104.945 165.579,104.945 165.579,101.814 165.579,101.422 165.579,86.459 165.579,86.068 
		173.838,86.068 173.838,86.459 173.838,101.422 173.838,101.814 173.865,101.814 173.865,104.945 175.208,104.945 176.578,104.945 
		176.578,103.379 176.578,101.422 176.578,86.459 176.578,84.502 176.578,82.938 175.208,82.938 173.865,82.938 165.552,82.938 
		164.209,82.938 162.839,82.938 162.839,84.502 162.839,86.459 162.839,101.422 162.839,103.379 162.839,104.945 164.209,104.945 
		165.552,104.945 	"/>
	<path fill="#4B4A4B" d="M65.57,71.496h16.844h1.37v1.369v16.844v1.371h-1.37H65.57H64.2v-1.371V72.865v-1.369H65.57L65.57,71.496z
		 M81.044,74.236H66.94V88.34h14.104V74.236L81.044,74.236z"/>
	<path fill="#4B4A4B" d="M205.11,88.646h7.581h1.063v1.063v7.58v1.063h-1.063h-7.581h-1.063v-1.063v-7.58v-1.063H205.11
		L205.11,88.646z M211.628,90.771h-5.455v5.455h5.455V90.771L211.628,90.771z"/>
	<path fill="#4B4A4B" d="M217.313,81.906h7.581h1.063v1.063v7.58v1.064h-1.063h-7.581h-1.063v-1.064v-7.58v-1.063H217.313
		L217.313,81.906z M223.831,84.031h-5.455v5.455h5.455V84.031L223.831,84.031z"/>
	<path fill="#4B4A4B" d="M79.706,101.52h9.349c-0.031-0.338-0.044-0.68-0.038-1.025h-0.006l0,0l0,0l0.006-0.035
		c0.057-2.584,1.152-4.898,2.877-6.549c1.722-1.648,4.069-2.645,6.635-2.598v-0.006h0l0.034,0.008
		c0.213,0.004,0.418,0.014,0.614,0.029c0.552-1.611,1.53-3.021,2.797-4.1c1.679-1.426,3.87-2.268,6.25-2.217
		c2.584,0.057,4.899,1.152,6.551,2.877c1.318,1.377,2.218,3.152,2.502,5.121c2.418,0.158,4.576,1.227,6.14,2.859
		c1.432,1.496,2.37,3.463,2.561,5.635h18.728v3.426h-19.056c-0.462,1.609-1.344,3.037-2.516,4.16
		c-1.729,1.654-4.089,2.65-6.668,2.594c-0.583-0.012-1.149-0.076-1.692-0.188c-0.131-0.027-0.261-0.059-0.389-0.09
		c-0.748,0.818-1.642,1.504-2.64,2.018l0.001,0.002c-1.337,0.688-2.86,1.061-4.468,1.025c-1.892-0.041-3.636-0.637-5.081-1.627
		c-1.103-0.758-2.034-1.744-2.726-2.891c-0.396,0.047-0.821,0.066-1.276,0.057v0.008l0,0l-0.034-0.008
		c-2.584-0.057-4.898-1.152-6.55-2.877c-0.62-0.646-1.146-1.383-1.561-2.184H79.706V101.52L79.706,101.52z M110.189,110.404
		c0.875-0.449,1.628-1.115,2.187-1.934l0.781-1.139l1.272,0.518c0.343,0.139,0.688,0.246,1.027,0.316
		c0.353,0.072,0.713,0.115,1.077,0.123c1.639,0.035,3.137-0.596,4.233-1.646c1.1-1.053,1.799-2.521,1.834-4.156
		c0.036-1.639-0.596-3.137-1.646-4.232c-1.053-1.102-2.522-1.799-4.157-1.834c-0.137-0.004-0.292,0-0.462,0.01
		c-0.167,0.008-0.32,0.021-0.459,0.041l-2.018,0.268l0.091-2.033l0.005-0.119h0l0.003-0.092h0c0.032-1.635-0.599-3.127-1.646-4.221
		c-1.053-1.102-2.522-1.799-4.156-1.834c-1.511-0.033-2.905,0.504-3.976,1.414c-1.079,0.916-1.827,2.215-2.032,3.689l-0.271,1.945
		l-1.883-0.533c-0.237-0.068-0.484-0.121-0.739-0.16H99.25c-0.261-0.039-0.502-0.063-0.72-0.068v0.006h0l-0.033-0.008
		c-1.639-0.035-3.137,0.596-4.233,1.646c-1.092,1.045-1.789,2.502-1.833,4.123h0.006l0,0l0,0l-0.007,0.033
		c-0.036,1.639,0.596,3.137,1.646,4.232c1.046,1.094,2.502,1.789,4.123,1.834v-0.006l0,0l0.034,0.008
		c0.272,0.004,0.565-0.012,0.877-0.051c0.306-0.039,0.589-0.094,0.846-0.166l1.457-0.404l0.577,1.402
		c0.44,1.07,1.189,1.988,2.138,2.639c0.922,0.633,2.029,1.014,3.221,1.041c1.021,0.021,1.987-0.215,2.836-0.652H110.189
		L110.189,110.404z"/>
</g>
</svg>
