<svg xmlns="http://www.w3.org/2000/svg" xmlns:xlink="http://www.w3.org/1999/xlink" width="1844.333" height="1824.853" viewBox="0 0 1844.333 1824.853">
  <defs>
    <linearGradient id="linear-gradient" x1="0.193" y1="0.673" x2="0.85" y2="0.257" gradientUnits="objectBoundingBox">
      <stop offset="0" stop-color="#f8f8f8"/>
      <stop offset="1" stop-color="#efefef"/>
    </linearGradient>
  </defs>
  <path id="Path_1013" data-name="Path 1013" d="M1675.412,531.4c22.349-110.193,117.934-162.383,131.382-278.546C1836.085-.067,1582.369-136.036,1465.556,57.139c-59.42,98.255-81.869,220.836-152.879,310.613-72.063,91.091-180.875,103.922-270.027,169.6-163.825,120.69-211.211,343.774-409.86,434.69-458.119,209.7-439.426,480.28-104.063,493.56,280.6,11.114,356.6-363.62,716.9-358.241C1831.678,1116.107,1626.812,771.1,1675.412,531.4Z" transform="matrix(0.97, -0.242, 0.242, 0.97, -265.678, 470.853)" fill="url(#linear-gradient)"/>
</svg>
