<?xml version="1.0" encoding="utf-8"?>
<!-- Generator: Adobe Illustrator 15.0.0, SVG Export Plug-In . SVG Version: 6.00 Build 0)  -->
<!DOCTYPE svg PUBLIC "-//W3C//DTD SVG 1.1//EN" "http://www.w3.org/Graphics/SVG/1.1/DTD/svg11.dtd">
<svg version="1.1" id="Layer_1" xmlns="http://www.w3.org/2000/svg" xmlns:xlink="http://www.w3.org/1999/xlink" x="0px" y="0px"
	 width="52.053px" height="52.054px" viewBox="23.975 23.972 52.053 52.054" enable-background="new 23.975 23.972 52.053 52.054"
	 xml:space="preserve">
<title>close</title>
<path fill="#545454" d="M74.622,66.313L58.297,49.997l16.313-16.325c1.881-1.875,1.881-4.891,0.006-6.772L73.1,25.381
	c-0.891-0.913-2.109-1.41-3.391-1.41c-0.006,0-0.006,0-0.006,0c-1.281,0-2.484,0.503-3.385,1.406L50,41.709L33.675,25.397
	c-1.872-1.875-4.884-1.884-6.766-0.009l-1.519,1.503c-0.916,0.897-1.416,2.116-1.416,3.394c0,1.285,0.503,2.494,1.406,3.394
	l16.331,16.319L25.397,66.322c-1.881,1.875-1.881,4.891-0.006,6.777l1.516,1.516c0.897,0.913,2.112,1.41,3.394,1.41
	c1.275,0,2.494-0.51,3.391-1.406l16.316-16.328L66.325,74.6c0.925,0.935,2.156,1.406,3.391,1.406c1.222,0,2.446-0.465,3.381-1.396
	l1.516-1.513c0.919-0.891,1.416-2.109,1.416-3.391c0.006-1.281-0.497-2.49-1.4-3.394H74.622z"/>
</svg>
