<svg xmlns="http://www.w3.org/2000/svg" width="19.332" height="19.366" viewBox="0 0 19.332 19.366"><path d="M12.912,4.339a4.174,4.174,0,0,1,3.3,3.3M12.912,1a7.513,7.513,0,0,1,6.636,6.628m-.835,6.662v2.5a1.67,1.67,0,0,1-1.82,1.67A16.52,16.52,0,0,1,9.69,15.9a16.278,16.278,0,0,1-5.009-5.009A16.52,16.52,0,0,1,2.119,3.655,1.67,1.67,0,0,1,3.78,1.835h2.5a1.67,1.67,0,0,1,1.67,1.436,10.719,10.719,0,0,0,.584,2.346,1.67,1.67,0,0,1-.376,1.761L7.1,8.438a13.356,13.356,0,0,0,5.009,5.009l1.06-1.06a1.67,1.67,0,0,1,1.761-.376,10.719,10.719,0,0,0,2.346.584,1.67,1.67,0,0,1,1.436,1.695Z" transform="translate(-1.211 -0.006)" fill="none" stroke="#3d9ae2" stroke-linecap="round" stroke-linejoin="round" stroke-width="1.8"/></svg>